<svg width="116" height="65" viewBox="0 0 116 65" fill="none" xmlns="http://www.w3.org/2000/svg">
<g id="logo">
<g id="Group">
<path id="Vector" d="M56.2524 52.8223H52.494C52.1255 52.8223 51.757 53.1173 51.757 53.5599C51.757 53.9287 52.0518 54.2976 52.494 54.2976H56.2524C56.6208 54.2976 56.9893 54.0025 56.9893 53.5599C56.9893 53.1911 56.6945 52.8223 56.2524 52.8223Z" fill="white"/>
<g id="Group_2">
<path id="Vector_2" d="M76.2233 4.35728C76.0022 4.35728 75.7811 4.28351 75.6338 4.13598L73.423 1.92302C73.1282 1.62796 73.1282 1.03784 73.423 0.74278C73.7177 0.447719 74.3073 0.447719 74.6021 0.74278L76.8129 2.95574C77.1076 3.2508 77.1076 3.84092 76.8129 4.13598C76.6655 4.28351 76.4444 4.35728 76.2233 4.35728Z" fill="white"/>
</g>
<g id="Group_3">
<path id="Vector_3" d="M112.923 4.35728C112.702 4.35728 112.481 4.28351 112.333 4.13598C112.038 3.84092 112.038 3.2508 112.333 2.95574L114.544 0.74278C114.839 0.447719 115.428 0.447719 115.723 0.74278C116.018 1.03784 116.018 1.62796 115.723 1.92302L113.512 4.13598C113.365 4.28351 113.144 4.35728 112.923 4.35728Z" fill="white"/>
</g>
<g id="Group_4">
<path id="Vector_4" d="M74.0125 43.3065C73.7914 43.3065 73.5703 43.2327 73.423 43.0852C73.1282 42.7901 73.1282 42.2 73.423 41.905L75.6338 39.692C75.9285 39.3969 76.5181 39.3969 76.8129 39.692C77.1076 39.9871 77.1076 40.5772 76.8129 40.8722L74.6021 43.0852C74.4547 43.2327 74.2336 43.3065 74.0125 43.3065Z" fill="white"/>
</g>
<g id="Group_5">
<path id="Vector_5" d="M115.134 43.3065C114.912 43.3065 114.691 43.2327 114.544 43.0852L112.333 40.8722C112.038 40.5772 112.038 39.9871 112.333 39.692C112.628 39.3969 113.218 39.3969 113.512 39.692L115.723 41.905C116.018 42.2 116.018 42.7901 115.723 43.0852C115.576 43.2327 115.355 43.3065 115.134 43.3065Z" fill="white"/>
</g>
<g id="Group_6">
<path id="Vector_6" d="M83.8138 4.87455C83.519 4.87455 83.2242 4.72702 83.0768 4.43196L81.4556 1.77641C81.2345 1.40758 81.3819 0.891224 81.7503 0.596163C82.1188 0.374867 82.6347 0.522396 82.9294 0.891222L84.5507 3.54677C84.7718 3.9156 84.6244 4.43195 84.2559 4.72702C84.1085 4.80078 83.9611 4.87455 83.8138 4.87455Z" fill="white"/>
</g>
<g id="Group_7">
<path id="Vector_7" d="M91.0357 5.24399C90.6673 5.24399 90.2988 4.94893 90.2251 4.5801L89.6355 1.48197C89.5618 1.03937 89.8566 0.596781 90.2988 0.523015C90.741 0.44925 91.1831 0.744312 91.2568 1.1869L91.8463 4.28504C91.92 4.72764 91.6253 5.17023 91.1831 5.24399C91.1831 5.24399 91.1094 5.24399 91.0357 5.24399Z" fill="white"/>
</g>
<g id="Group_8">
<path id="Vector_8" d="M91.2568 12.7674C90.8883 12.7674 90.5936 12.5461 90.4462 12.1773L89.4882 9.22667C89.3408 8.78408 89.5619 8.34148 90.004 8.19395C90.4462 8.04642 90.8883 8.26772 91.0357 8.71031L91.9937 11.6609C92.1411 12.1035 91.9201 12.5461 91.4779 12.6936C91.4042 12.6936 91.3305 12.7674 91.2568 12.7674Z" fill="white"/>
</g>
<g id="Group_9">
<path id="Vector_9" d="M105.259 4.87455C105.111 4.87455 104.964 4.80078 104.816 4.72702C104.448 4.50572 104.301 3.98936 104.522 3.54677L106.143 0.891222C106.364 0.522396 106.88 0.374867 107.322 0.596163C107.69 0.817459 107.838 1.33381 107.617 1.77641L105.996 4.43196C105.848 4.72702 105.553 4.87455 105.259 4.87455Z" fill="white"/>
</g>
<g id="Group_10">
<path id="Vector_10" d="M98.0366 5.24399C97.9629 5.24399 97.9629 5.24399 97.8892 5.24399C97.4471 5.17023 97.1523 4.72764 97.226 4.28504L97.8155 1.1869C97.8892 0.744312 98.3314 0.44925 98.7736 0.523015C99.2157 0.596781 99.5105 1.03937 99.4368 1.48197L98.8473 4.5801C98.7736 4.94893 98.4788 5.24399 98.0366 5.24399Z" fill="white"/>
</g>
<g id="Group_11">
<path id="Vector_11" d="M97.8892 12.7674C97.8155 12.7674 97.7418 12.7674 97.5945 12.6936C97.1523 12.5461 96.9312 12.1035 97.0786 11.6609L98.0366 8.71031C98.184 8.26772 98.6262 8.04642 99.0683 8.19395C99.5105 8.34148 99.7316 8.78408 99.5842 9.22667L98.6262 12.1773C98.5525 12.5461 98.2577 12.7674 97.8892 12.7674Z" fill="white"/>
</g>
<g id="Group_12">
<path id="Vector_12" d="M82.2662 43.3062C82.1188 43.3062 81.9714 43.2324 81.824 43.1587C81.4556 42.9374 81.3082 42.421 81.5293 41.9784L83.1505 39.3229C83.3716 38.954 83.8875 38.8065 84.3296 39.0278C84.6981 39.2491 84.8455 39.7655 84.6244 40.208L83.0031 42.8636C82.782 43.1587 82.4873 43.3062 82.2662 43.3062Z" fill="white"/>
</g>
<g id="Group_13">
<path id="Vector_13" d="M90.4462 43.3065C90.3725 43.3065 90.3725 43.3065 90.2988 43.3065C89.8566 43.2327 89.5618 42.7901 89.6355 42.3475L90.2251 39.2494C90.2988 38.8068 90.7409 38.5118 91.1831 38.5855C91.6253 38.6593 91.92 39.1019 91.8463 39.5445L91.2568 42.6426C91.1831 43.0114 90.8146 43.3065 90.4462 43.3065Z" fill="white"/>
</g>
<g id="Group_14">
<path id="Vector_14" d="M90.2251 35.7088C90.1514 35.7088 90.0777 35.7088 89.9303 35.635C89.4882 35.4875 89.2671 35.0449 89.4145 34.6023L90.3725 31.6517C90.5199 31.2091 90.962 30.9878 91.4042 31.1354C91.8464 31.2829 92.0674 31.7255 91.9201 32.1681L90.962 35.1187C90.962 35.4875 90.5936 35.7088 90.2251 35.7088Z" fill="white"/>
</g>
<g id="Group_15">
<path id="Vector_15" d="M106.88 43.3062C106.585 43.3062 106.29 43.1587 106.143 42.8636L104.522 40.208C104.301 39.8392 104.448 39.3229 104.816 39.0278C105.185 38.8065 105.701 38.954 105.996 39.3229L107.617 41.9784C107.838 42.3472 107.69 42.8636 107.322 43.1587C107.175 43.3062 107.027 43.3062 106.88 43.3062Z" fill="white"/>
</g>
<g id="Group_16">
<path id="Vector_16" d="M98.6999 43.3065C98.3314 43.3065 97.9629 43.0114 97.8892 42.6426L97.2997 39.5445C97.226 39.1019 97.5208 38.6593 97.9629 38.5855C98.4051 38.5118 98.8473 38.8068 98.921 39.2494L99.5105 42.3475C99.5842 42.7901 99.2894 43.2327 98.8473 43.3065C98.7736 43.3065 98.6999 43.3065 98.6999 43.3065Z" fill="white"/>
</g>
<g id="Group_17">
<path id="Vector_17" d="M98.921 35.7088C98.5525 35.7088 98.2577 35.4875 98.1103 35.1187L97.1523 32.1681C97.0049 31.7255 97.226 31.2829 97.6682 31.1354C98.1103 30.9878 98.5525 31.2091 98.6999 31.6517L99.6579 34.6023C99.8053 35.0449 99.5842 35.4875 99.142 35.635C99.0684 35.7088 98.9947 35.7088 98.921 35.7088Z" fill="white"/>
</g>
<g id="Group_18">
<path id="Vector_18" d="M107.543 35.7088C107.322 35.7088 107.101 35.6351 106.954 35.4875L104.743 33.2746C104.448 32.9795 104.448 32.3894 104.743 32.0943C105.038 31.7993 105.627 31.7993 105.922 32.0943L108.133 34.3073C108.427 34.6024 108.427 35.1925 108.133 35.4875C107.985 35.6351 107.764 35.7088 107.543 35.7088Z" fill="white"/>
</g>
<g id="Group_19">
<path id="Vector_19" d="M112.407 12.0293C112.112 12.0293 111.817 11.8818 111.67 11.5867C111.449 11.2179 111.596 10.7016 111.965 10.4065L114.618 8.78366C114.986 8.56237 115.502 8.7099 115.797 9.07872C116.018 9.44755 115.87 9.96391 115.502 10.259L112.849 11.8818C112.702 11.9556 112.554 12.0293 112.407 12.0293Z" fill="white"/>
</g>
<g id="Group_20">
<path id="Vector_20" d="M112.038 19.2594C111.67 19.2594 111.301 18.9643 111.228 18.5955C111.154 18.1529 111.449 17.7103 111.891 17.6366L114.986 17.0465C115.428 16.9727 115.87 17.2677 115.944 17.7103C116.018 18.1529 115.723 18.5955 115.281 18.6693L112.186 19.2594C112.186 19.2594 112.112 19.2594 112.038 19.2594Z" fill="white"/>
</g>
<g id="Group_21">
<path id="Vector_21" d="M104.522 19.4066C104.153 19.4066 103.858 19.1853 103.711 18.8165C103.564 18.3739 103.785 17.9313 104.227 17.7838L107.175 16.8248C107.617 16.6773 108.059 16.8986 108.206 17.3412C108.354 17.7838 108.133 18.2263 107.69 18.3739L104.743 19.3328C104.743 19.4066 104.669 19.4066 104.522 19.4066Z" fill="white"/>
</g>
<g id="Group_22">
<path id="Vector_22" d="M115.134 35.1192C114.986 35.1192 114.839 35.0454 114.691 34.9716L112.038 33.3488C111.67 33.1275 111.523 32.6112 111.744 32.1686C111.965 31.7997 112.481 31.6522 112.923 31.8735L115.576 33.4963C115.944 33.7176 116.092 34.234 115.87 34.6766C115.649 34.9716 115.428 35.1192 115.134 35.1192Z" fill="white"/>
</g>
<g id="Group_23">
<path id="Vector_23" d="M115.134 26.8571C115.06 26.8571 115.06 26.8571 114.986 26.8571L111.891 26.2669C111.449 26.1932 111.154 25.7506 111.228 25.308C111.301 24.8654 111.744 24.5703 112.186 24.6441L115.281 25.1605C115.723 25.2342 116.018 25.6768 115.944 26.1194C115.87 26.562 115.502 26.8571 115.134 26.8571Z" fill="white"/>
</g>
<g id="Group_24">
<path id="Vector_24" d="M107.543 27.0785C107.469 27.0785 107.396 27.0785 107.248 27.0047L104.301 26.0458C103.858 25.8982 103.637 25.4556 103.785 25.013C103.932 24.5705 104.374 24.3492 104.816 24.4967L107.764 25.4556C108.206 25.6032 108.427 26.0458 108.28 26.4884C108.206 26.8572 107.912 27.0785 107.543 27.0785Z" fill="white"/>
</g>
<g id="Group_25">
<path id="Vector_25" d="M76.6655 12.0293C76.5181 12.0293 76.3707 11.9556 76.2233 11.8818L73.5703 10.259C73.2019 10.0377 73.0545 9.52132 73.2756 9.07872C73.4966 8.7099 74.0125 8.56237 74.4547 8.78366L77.1076 10.4065C77.4761 10.6278 77.6235 11.1442 77.4024 11.5867C77.255 11.8818 76.9603 12.0293 76.6655 12.0293Z" fill="white"/>
</g>
<g id="Group_26">
<path id="Vector_26" d="M77.1076 19.2594C77.0339 19.2594 77.0339 19.2594 76.9602 19.2594L73.8651 18.6693C73.423 18.5955 73.1282 18.1529 73.2019 17.7103C73.2756 17.2677 73.7177 16.9727 74.1599 17.0465L77.255 17.6366C77.6972 17.7103 77.992 18.1529 77.9183 18.5955C77.8446 18.9643 77.4761 19.2594 77.1076 19.2594Z" fill="white"/>
</g>
<g id="Group_27">
<path id="Vector_27" d="M84.5507 19.4066C84.477 19.4066 84.4033 19.4066 84.2559 19.3328L81.3082 18.3739C80.866 18.2263 80.6449 17.7838 80.7923 17.3412C80.9397 16.8986 81.3819 16.6773 81.824 16.8248L84.7718 17.7838C85.2139 17.9313 85.435 18.3739 85.2876 18.8165C85.2876 19.1853 84.9192 19.4066 84.5507 19.4066Z" fill="white"/>
</g>
<g id="Group_28">
<path id="Vector_28" d="M74.0125 35.1192C73.7177 35.1192 73.423 34.9716 73.2756 34.6766C73.0545 34.3078 73.2019 33.7914 73.5703 33.4963L76.2233 31.8735C76.5918 31.6522 77.1076 31.7997 77.4024 32.1686C77.6235 32.5374 77.4761 33.0537 77.1076 33.3488L74.4547 34.9716C74.3073 35.0454 74.1599 35.1192 74.0125 35.1192Z" fill="white"/>
</g>
<g id="Group_29">
<path id="Vector_29" d="M74.0125 26.8571C73.644 26.8571 73.2756 26.562 73.2019 26.1932C73.1282 25.7506 73.423 25.308 73.8651 25.2342L76.9602 24.6441C77.4024 24.5703 77.8446 24.8654 77.9183 25.308C77.992 25.7506 77.6972 26.1932 77.255 26.2669L74.1599 26.8571C74.1599 26.8571 74.0862 26.8571 74.0125 26.8571Z" fill="white"/>
</g>
<g id="Group_30">
<path id="Vector_30" d="M81.6029 27.0785C81.2345 27.0785 80.9397 26.8572 80.7923 26.4884C80.6449 26.0458 80.866 25.6032 81.3082 25.4556L84.2559 24.4967C84.6981 24.3492 85.1402 24.5705 85.2876 25.013C85.435 25.4556 85.2139 25.8982 84.7718 26.0458L81.824 27.0047C81.824 27.0785 81.6766 27.0785 81.6029 27.0785Z" fill="white"/>
</g>
<g id="Group_31">
<path id="Vector_31" d="M91.8464 20.8807C91.4042 20.8807 90.962 20.7332 90.6673 20.3643L88.4565 18.1514C87.7932 17.4875 87.7932 16.4548 88.4565 15.7909C89.1197 15.127 90.1514 15.127 90.8147 15.7909L93.0255 18.0038C93.6887 18.6677 93.6887 19.7004 93.0255 20.3643C92.7307 20.7332 92.2885 20.8807 91.8464 20.8807Z" fill="white"/>
</g>
<g id="Group_32">
<path id="Vector_32" d="M97.2997 20.8807C96.8575 20.8807 96.4154 20.7332 96.1206 20.3643C95.4573 19.7004 95.4573 18.6677 96.1206 18.0038L98.3314 15.7909C98.9946 15.127 100.026 15.127 100.69 15.7909C101.353 16.4548 101.353 17.4875 100.69 18.1514L98.4788 20.3643C98.1103 20.7332 97.6682 20.8807 97.2997 20.8807Z" fill="white"/>
</g>
<g id="Group_33">
<path id="Vector_33" d="M89.6356 28.4803C89.1934 28.4803 88.7512 28.3328 88.4565 27.9639C87.7932 27.3001 87.7932 26.2673 88.4565 25.6035L90.6673 23.3905C91.3305 22.7266 92.3622 22.7266 93.0255 23.3905C93.6887 24.0544 93.6887 25.0871 93.0255 25.751L90.8147 27.9639C90.5199 28.3328 90.0777 28.4803 89.6356 28.4803Z" fill="white"/>
</g>
<g id="Group_34">
<path id="Vector_34" d="M99.5105 28.4803C99.0683 28.4803 98.6262 28.3328 98.3314 27.9639L96.1206 25.751C95.4573 25.0871 95.4573 24.0544 96.1206 23.3905C96.7838 22.7266 97.8155 22.7266 98.4788 23.3905L100.69 25.6035C101.353 26.2673 101.353 27.3001 100.69 27.9639C100.321 28.3328 99.879 28.4803 99.5105 28.4803Z" fill="white"/>
</g>
<path id="Vector_35" d="M64.2113 53.4864L69.1487 48.5441C69.4435 48.2491 69.4435 47.6589 69.1487 47.3639C68.854 47.0688 68.2644 47.0688 67.9696 47.3639L63.0322 52.3061L58.0947 47.3639C57.7999 47.0688 57.2104 47.0688 56.9156 47.3639C56.6208 47.6589 56.6208 48.2491 56.9156 48.5441L61.8531 53.4864L56.9156 58.4287C56.6208 58.7237 56.6208 59.3138 56.9156 59.6089C57.063 59.7564 57.2841 59.8302 57.5051 59.8302C57.7262 59.8302 57.9473 59.7564 58.0947 59.6089L63.0322 54.6666L67.9696 59.6089C68.117 59.7564 68.3381 59.8302 68.5592 59.8302C68.7803 59.8302 69.0013 59.7564 69.1487 59.6089C69.4435 59.3138 69.4435 58.7237 69.1487 58.4287L64.2113 53.4864Z" fill="white"/>
<g id="Group_35">
<path id="Vector_36" d="M81.6029 35.7088C81.3819 35.7088 81.1608 35.6351 81.0134 35.4875C80.7186 35.1925 80.7186 34.6024 81.0134 34.3073L83.2242 32.0943C83.519 31.7993 84.1085 31.7993 84.4033 32.0943C84.6981 32.3894 84.6981 32.9795 84.4033 33.2746L82.1925 35.4875C82.0451 35.6351 81.824 35.7088 81.6029 35.7088Z" fill="white"/>
</g>
<g id="Group_36">
<path id="Vector_37" d="M83.8138 11.9569C83.5927 11.9569 83.3716 11.8831 83.2242 11.7356L81.0134 9.52263C80.7186 9.22757 80.7186 8.63745 81.0134 8.34239C81.3082 8.04733 81.8977 8.04733 82.1925 8.34239L84.4033 10.5553C84.6981 10.8504 84.6981 11.4405 84.4033 11.7356C84.2559 11.8831 84.0348 11.9569 83.8138 11.9569Z" fill="white"/>
</g>
<g id="Group_37">
<path id="Vector_38" d="M105.332 11.9569C105.111 11.9569 104.89 11.8831 104.743 11.7356C104.448 11.4405 104.448 10.8504 104.743 10.5553L106.954 8.34239C107.248 8.04733 107.838 8.04733 108.133 8.34239C108.427 8.63745 108.427 9.22757 108.133 9.52263L105.922 11.7356C105.774 11.8831 105.553 11.9569 105.332 11.9569Z" fill="white"/>
</g>
<path id="Vector_39" d="M27.0697 47.3633C26.6275 47.3633 26.259 47.7321 26.259 48.1747V49.2812C25.1536 48.0272 23.6061 47.3633 21.9848 47.3633C18.7423 47.3633 16.0893 50.1664 16.0893 53.6333C16.0893 57.1003 18.7423 59.9034 21.9848 59.9034C23.6061 59.9034 25.1536 59.1657 26.259 57.9855V59.092C26.259 59.5345 26.6275 59.9034 27.0697 59.9034C27.5118 59.9034 27.8803 59.5345 27.8803 59.092V48.1747C27.8803 47.7321 27.5118 47.3633 27.0697 47.3633ZM21.9848 58.2068C19.6266 58.2068 17.7106 56.1413 17.7106 53.6333C17.7106 51.1253 19.6266 48.9861 21.9848 48.9861C24.343 48.9861 26.259 51.0515 26.259 53.6333C26.259 56.1413 24.343 58.2068 21.9848 58.2068Z" fill="white"/>
<g id="Group_38">
<path id="Vector_40" d="M32.8178 43.084C32.3756 43.084 32.0071 43.4528 32.0071 43.8954V44.4855C32.0071 44.9281 32.3756 45.3707 32.8178 45.3707C33.2599 45.3707 33.7021 45.0019 33.7021 44.4855V43.8954C33.7021 43.4528 33.2599 43.084 32.8178 43.084Z" fill="white"/>
<path id="Vector_41" d="M32.8178 47.3633C32.3756 47.3633 32.0071 47.7321 32.0071 48.1747V59.0182C32.0071 59.4608 32.3756 59.8296 32.8178 59.8296C33.2599 59.8296 33.7021 59.4608 33.7021 59.0182V48.1747C33.7021 47.7321 33.3336 47.3633 32.8178 47.3633Z" fill="white"/>
</g>
<path id="Vector_42" d="M48.0724 47.3633C47.6302 47.3633 47.2617 47.7321 47.2617 48.1747V49.2812C46.1563 48.0272 44.6088 47.3633 42.9875 47.3633C39.745 47.3633 37.092 50.1664 37.092 53.6333C37.092 57.1003 39.745 59.9034 42.9875 59.9034C44.6088 59.9034 46.1563 59.1657 47.2617 57.9855V59.092C47.2617 59.5345 47.6302 59.9034 48.0724 59.9034C48.5145 59.9034 48.883 59.5345 48.883 59.092V48.1747C48.883 47.7321 48.5145 47.3633 48.0724 47.3633ZM42.9875 58.2068C40.6293 58.2068 38.7133 56.1413 38.7133 53.6333C38.7133 51.1253 40.6293 48.9861 42.9875 48.9861C45.3457 48.9861 47.2617 51.0515 47.2617 53.6333C47.188 56.1413 45.3457 58.2068 42.9875 58.2068Z" fill="white"/>
<path id="Vector_43" d="M12.0362 47.3633C11.594 47.3633 11.1519 47.7321 11.1519 48.1747V49.2812C10.0464 48.1009 8.49888 47.3633 6.87762 47.3633C3.63511 47.3633 0.982136 50.1664 0.982136 53.5596C0.982136 56.9528 3.63511 59.7558 6.87762 59.7558C8.49888 59.7558 10.0464 59.092 11.1519 57.8379V58.6494C11.1519 61.0099 9.30951 62.854 6.87762 62.854C6.28808 62.854 5.69852 62.7065 5.18267 62.4852C4.59312 62.2639 4.15096 61.895 3.78249 61.5262C3.63511 61.3787 3.41403 61.2311 3.19294 61.2311C2.97186 61.2311 2.75078 61.3049 2.60339 61.4524C2.23493 61.7475 2.30862 62.2639 2.5297 62.6327C3.04556 63.149 3.6351 63.5916 4.22465 63.8867L4.29835 63.9605C4.37204 63.9605 4.37204 64.0342 4.44573 64.0342L4.59312 64.108C4.66681 64.108 4.66682 64.1818 4.74051 64.1818C5.40375 64.4768 6.14069 64.5506 6.87762 64.5506C7.31979 64.5506 7.68825 64.4768 8.13041 64.403H8.20411C8.57258 64.3293 8.94105 64.1818 9.30951 64.0342C9.60429 63.8867 9.89906 63.7392 10.1938 63.5179C10.2675 63.4441 10.3412 63.3703 10.4149 63.3703L10.5623 63.2966C10.7097 63.2228 10.8571 63.0753 11.0045 62.9277C11.1519 62.7802 11.2992 62.7065 11.4466 62.4852C11.5203 62.4114 11.594 62.3376 11.594 62.3376C12.4783 61.2311 12.9942 59.9771 12.9942 58.5756V48.1747C12.8468 47.7321 12.4783 47.3633 12.0362 47.3633ZM6.95132 58.133C4.59312 58.133 2.75078 56.0676 2.75078 53.5596C2.75078 51.0515 4.66682 48.9861 6.95132 48.9861C9.30951 48.9861 11.2255 51.0515 11.2255 53.5596C11.1519 56.0676 9.30951 58.133 6.95132 58.133Z" fill="white"/>
</g>
</g>
</svg>
