<svg width="18" height="18" viewBox="0 0 18 18" fill="none" xmlns="http://www.w3.org/2000/svg">
<path d="M5.06532 7.28833C4.48917 7.28833 3.91302 7.0959 3.52892 6.61482L0.648169 3.72835C-0.216057 2.86241 -0.216057 1.51539 0.648169 0.649455C1.5124 -0.216485 2.85674 -0.216485 3.72097 0.649455L6.60172 3.53592C7.46595 4.40186 7.46595 5.74888 6.60172 6.61482C6.21762 7.0959 5.64147 7.28833 5.06532 7.28833Z" fill="white"/>
<path d="M12.1709 7.28833C11.5948 7.28833 11.0186 7.0959 10.6345 6.61482C9.77027 5.74888 9.77027 4.40186 10.6345 3.53592L13.5152 0.649455C14.3795 -0.216485 15.7238 -0.216485 16.588 0.649455C17.4523 1.51539 17.4523 2.86241 16.588 3.72835L13.7073 6.61482C13.2272 7.0959 12.651 7.28833 12.1709 7.28833Z" fill="white"/>
<path d="M2.18456 17.1985C1.60841 17.1985 1.03227 17.0061 0.648169 16.525C-0.216057 15.6591 -0.216057 14.3121 0.648169 13.4461L3.52892 10.5597C4.39315 9.69373 5.7375 9.69373 6.60172 10.5597C7.46595 11.4256 7.46595 12.7726 6.60172 13.6386L3.72097 16.525C3.33687 17.0061 2.76071 17.1985 2.18456 17.1985Z" fill="white"/>
<path d="M15.0516 17.1985C14.4755 17.1985 13.8993 17.0061 13.5152 16.525L10.6345 13.6386C9.77027 12.7726 9.77027 11.4256 10.6345 10.5597C11.4987 9.69373 12.8431 9.69373 13.7073 10.5597L16.588 13.4461C17.4523 14.3121 17.4523 15.6591 16.588 16.525C16.1079 17.0061 15.5318 17.1985 15.0516 17.1985Z" fill="white"/>
</svg>
