<svg width="132" height="92" viewBox="0 0 132 92" fill="none" xmlns="http://www.w3.org/2000/svg">
<path d="M64.2019 62.2578H61.1952C60.9004 62.2578 60.6056 62.4939 60.6056 62.8479C60.6056 63.143 60.8415 63.4381 61.1952 63.4381H64.2019C64.4967 63.4381 64.7914 63.202 64.7914 62.8479C64.7914 62.5529 64.5556 62.2578 64.2019 62.2578Z" fill="white"/>
<path d="M80.1787 23.4866C80.0018 23.4866 79.8249 23.4276 79.707 23.3096L77.9384 21.5392C77.7025 21.3032 77.7025 20.8311 77.9384 20.595C78.1742 20.359 78.6458 20.359 78.8816 20.595L80.6503 22.3654C80.8861 22.6014 80.8861 23.0735 80.6503 23.3096C80.5324 23.4276 80.3555 23.4866 80.1787 23.4866Z" fill="white"/>
<path d="M109.538 23.4866C109.361 23.4866 109.184 23.4276 109.067 23.3096C108.831 23.0735 108.831 22.6014 109.067 22.3654L110.835 20.595C111.071 20.359 111.543 20.359 111.778 20.595C112.014 20.8311 112.014 21.3032 111.778 21.5392L110.01 23.3096C109.892 23.4276 109.715 23.4866 109.538 23.4866Z" fill="white"/>
<path d="M78.41 54.6453C78.2331 54.6453 78.0563 54.5863 77.9384 54.4683C77.7025 54.2322 77.7025 53.7601 77.9384 53.5241L79.707 51.7537C79.9428 51.5176 80.4145 51.5176 80.6503 51.7537C80.8861 51.9897 80.8861 52.4618 80.6503 52.6979L78.8816 54.4683C78.7637 54.5863 78.5869 54.6453 78.41 54.6453Z" fill="white"/>
<path d="M111.307 54.6453C111.13 54.6453 110.953 54.5863 110.835 54.4683L109.067 52.6979C108.831 52.4618 108.831 51.9897 109.067 51.7537C109.302 51.5176 109.774 51.5176 110.01 51.7537L111.778 53.5241C112.014 53.7601 112.014 54.2322 111.778 54.4683C111.661 54.5863 111.484 54.6453 111.307 54.6453Z" fill="white"/>
<path d="M86.251 23.8999C86.0152 23.8999 85.7794 23.7819 85.6615 23.5459L84.3644 21.4214C84.1876 21.1264 84.3055 20.7133 84.6003 20.4772C84.895 20.3002 85.3077 20.4182 85.5435 20.7133L86.8405 22.8377C87.0174 23.1328 86.8995 23.5459 86.6047 23.7819C86.4868 23.8409 86.3689 23.8999 86.251 23.8999Z" fill="white"/>
<path d="M92.0286 24.195C91.7338 24.195 91.439 23.9589 91.3801 23.6639L90.9084 21.1854C90.8495 20.8313 91.0853 20.4772 91.439 20.4182C91.7928 20.3592 92.1465 20.5953 92.2054 20.9493L92.6771 23.4278C92.736 23.7819 92.5002 24.136 92.1465 24.195C92.1465 24.195 92.0875 24.195 92.0286 24.195Z" fill="white"/>
<path d="M92.2054 30.2142C91.9107 30.2142 91.6749 30.0372 91.5569 29.7421L90.7905 27.3816C90.6726 27.0276 90.8495 26.6735 91.2032 26.5555C91.5569 26.4374 91.9107 26.6145 92.0286 26.9685L92.795 29.329C92.9129 29.6831 92.736 30.0372 92.3823 30.1552C92.3234 30.1552 92.2644 30.2142 92.2054 30.2142Z" fill="white"/>
<path d="M103.407 23.8999C103.289 23.8999 103.171 23.8409 103.053 23.7819C102.758 23.6049 102.64 23.1918 102.817 22.8377L104.114 20.7133C104.291 20.4182 104.704 20.3002 105.058 20.4772C105.352 20.6543 105.47 21.0673 105.293 21.4214L103.996 23.5459C103.879 23.7819 103.643 23.8999 103.407 23.8999Z" fill="white"/>
<path d="M97.6293 24.195C97.5704 24.195 97.5703 24.195 97.5114 24.195C97.1577 24.136 96.9218 23.7819 96.9808 23.4278L97.4524 20.9493C97.5114 20.5953 97.8651 20.3592 98.2189 20.4182C98.5726 20.4772 98.8084 20.8313 98.7494 21.1854L98.2778 23.6639C98.2189 23.9589 97.983 24.195 97.6293 24.195Z" fill="white"/>
<path d="M97.5114 30.2142C97.4524 30.2142 97.3935 30.2142 97.2756 30.1552C96.9218 30.0372 96.745 29.6831 96.8629 29.329L97.6293 26.9685C97.7472 26.6145 98.1009 26.4374 98.4547 26.5555C98.8084 26.6735 98.9853 27.0276 98.8673 27.3816L98.1009 29.7421C98.042 30.0372 97.8062 30.2142 97.5114 30.2142Z" fill="white"/>
<path d="M85.013 54.645C84.895 54.645 84.7771 54.586 84.6592 54.527C84.3645 54.35 84.2465 53.9369 84.4234 53.5828L85.7204 51.4584C85.8973 51.1633 86.31 51.0453 86.6637 51.2223C86.9585 51.3994 87.0764 51.8125 86.8995 52.1665L85.6025 54.291C85.4256 54.527 85.1898 54.645 85.013 54.645Z" fill="white"/>
<path d="M91.5569 54.6452C91.498 54.6452 91.498 54.6452 91.439 54.6452C91.0853 54.5862 90.8495 54.2321 90.9084 53.878L91.3801 51.3995C91.439 51.0454 91.7928 50.8094 92.1465 50.8684C92.5002 50.9274 92.736 51.2815 92.6771 51.6356L92.2054 54.1141C92.1465 54.4091 91.8517 54.6452 91.5569 54.6452Z" fill="white"/>
<path d="M91.3801 48.5672C91.3211 48.5672 91.2622 48.5672 91.1443 48.5082C90.7905 48.3902 90.6137 48.0361 90.7316 47.6821L91.498 45.3216C91.6159 44.9675 91.9696 44.7905 92.3234 44.9085C92.6771 45.0265 92.854 45.3806 92.736 45.7347L91.9696 48.0951C91.9696 48.3902 91.6749 48.5672 91.3801 48.5672Z" fill="white"/>
<path d="M104.704 54.645C104.468 54.645 104.232 54.527 104.114 54.291L102.817 52.1665C102.64 51.8715 102.758 51.4584 103.053 51.2223C103.348 51.0453 103.761 51.1633 103.996 51.4584L105.293 53.5828C105.47 53.8779 105.352 54.291 105.058 54.527C104.94 54.645 104.822 54.645 104.704 54.645Z" fill="white"/>
<path d="M98.1599 54.6452C97.8651 54.6452 97.5703 54.4091 97.5114 54.1141L97.0398 51.6356C96.9808 51.2815 97.2166 50.9274 97.5703 50.8684C97.9241 50.8094 98.2778 51.0454 98.3368 51.3995L98.8084 53.878C98.8674 54.2321 98.6315 54.5862 98.2778 54.6452C98.2188 54.6452 98.1599 54.6452 98.1599 54.6452Z" fill="white"/>
<path d="M98.3368 48.5672C98.042 48.5672 97.8062 48.3902 97.6883 48.0951L96.9218 45.7347C96.8039 45.3806 96.9808 45.0265 97.3345 44.9085C97.6883 44.7905 98.042 44.9675 98.1599 45.3216L98.9263 47.6821C99.0442 48.0361 98.8674 48.3902 98.5136 48.5082C98.4547 48.5672 98.3957 48.5672 98.3368 48.5672Z" fill="white"/>
<path d="M105.234 48.5672C105.058 48.5672 104.881 48.5082 104.763 48.3901L102.994 46.6198C102.758 46.3837 102.758 45.9116 102.994 45.6756C103.23 45.4395 103.702 45.4395 103.937 45.6756L105.706 47.4459C105.942 47.682 105.942 48.1541 105.706 48.3901C105.588 48.5082 105.411 48.5672 105.234 48.5672Z" fill="white"/>
<path d="M109.126 29.6241C108.89 29.6241 108.654 29.506 108.536 29.27C108.359 28.9749 108.477 28.5618 108.772 28.3258L110.894 27.0275C111.189 26.8505 111.602 26.9685 111.837 27.2636C112.014 27.5586 111.896 27.9717 111.602 28.2078L109.479 29.506C109.361 29.565 109.243 29.6241 109.126 29.6241Z" fill="white"/>
<path d="M108.831 35.4073C108.536 35.4073 108.241 35.1713 108.182 34.8762C108.123 34.5221 108.359 34.1681 108.713 34.1091L111.189 33.637C111.543 33.578 111.896 33.814 111.955 34.1681C112.014 34.5222 111.778 34.8762 111.425 34.9352L108.949 35.4073C108.949 35.4073 108.89 35.4073 108.831 35.4073Z" fill="white"/>
<path d="M102.817 35.5252C102.523 35.5252 102.287 35.3481 102.169 35.0531C102.051 34.699 102.228 34.3449 102.581 34.2269L104.94 33.4598C105.293 33.3417 105.647 33.5188 105.765 33.8728C105.883 34.2269 105.706 34.581 105.352 34.699L102.994 35.4662C102.994 35.5252 102.935 35.5252 102.817 35.5252Z" fill="white"/>
<path d="M111.307 48.0948C111.189 48.0948 111.071 48.0357 110.953 47.9767L108.831 46.6785C108.536 46.5014 108.418 46.0883 108.595 45.7343C108.772 45.4392 109.184 45.3212 109.538 45.4982L111.661 46.7965C111.955 46.9735 112.073 47.3866 111.896 47.7407C111.72 47.9767 111.543 48.0948 111.307 48.0948Z" fill="white"/>
<path d="M111.307 41.4855C111.248 41.4855 111.248 41.4855 111.189 41.4855L108.713 41.0134C108.359 40.9543 108.123 40.6003 108.182 40.2462C108.241 39.8921 108.595 39.6561 108.949 39.7151L111.425 40.1282C111.778 40.1872 112.014 40.5413 111.955 40.8953C111.896 41.2494 111.602 41.4855 111.307 41.4855Z" fill="white"/>
<path d="M105.234 41.6624C105.176 41.6624 105.117 41.6624 104.999 41.6034L102.64 40.8362C102.287 40.7182 102.11 40.3641 102.228 40.01C102.346 39.656 102.699 39.4789 103.053 39.597L105.411 40.3641C105.765 40.4821 105.942 40.8362 105.824 41.1903C105.765 41.4854 105.529 41.6624 105.234 41.6624Z" fill="white"/>
<path d="M80.5324 29.6241C80.4145 29.6241 80.2966 29.565 80.1787 29.506L78.0563 28.2078C77.7615 28.0307 77.6436 27.6176 77.8205 27.2636C77.9973 26.9685 78.41 26.8505 78.7637 27.0275L80.8861 28.3258C81.1809 28.5028 81.2988 28.9159 81.1219 29.27C81.004 29.506 80.7682 29.6241 80.5324 29.6241Z" fill="white"/>
<path d="M80.8861 35.4073C80.8271 35.4073 80.8272 35.4073 80.7682 35.4073L78.2921 34.9352C77.9384 34.8762 77.7025 34.5222 77.7615 34.1681C77.8204 33.814 78.1742 33.578 78.5279 33.637L81.004 34.1091C81.3577 34.1681 81.5936 34.5221 81.5346 34.8762C81.4757 35.1713 81.1809 35.4073 80.8861 35.4073Z" fill="white"/>
<path d="M86.8406 35.5252C86.7816 35.5252 86.7226 35.5252 86.6047 35.4662L84.2465 34.699C83.8928 34.581 83.7159 34.2269 83.8338 33.8728C83.9518 33.5188 84.3055 33.3417 84.6592 33.4598L87.0174 34.2269C87.3712 34.3449 87.548 34.699 87.4301 35.0531C87.4301 35.3481 87.1353 35.5252 86.8406 35.5252Z" fill="white"/>
<path d="M78.41 48.0948C78.1742 48.0948 77.9384 47.9767 77.8205 47.7407C77.6436 47.4456 77.7615 47.0325 78.0563 46.7965L80.1787 45.4982C80.4734 45.3212 80.8861 45.4392 81.1219 45.7343C81.2988 46.0293 81.1809 46.4424 80.8861 46.6785L78.7637 47.9767C78.6458 48.0357 78.5279 48.0948 78.41 48.0948Z" fill="white"/>
<path d="M78.41 41.4855C78.1152 41.4855 77.8204 41.2494 77.7615 40.9543C77.7025 40.6003 77.9384 40.2462 78.2921 40.1872L80.7682 39.7151C81.1219 39.6561 81.4757 39.8921 81.5346 40.2462C81.5936 40.6003 81.3577 40.9543 81.004 41.0134L78.5279 41.4855C78.5279 41.4855 78.469 41.4855 78.41 41.4855Z" fill="white"/>
<path d="M84.4824 41.6624C84.1876 41.6624 83.9518 41.4854 83.8338 41.1903C83.7159 40.8362 83.8928 40.4821 84.2465 40.3641L86.6047 39.597C86.9585 39.4789 87.3122 39.656 87.4301 40.01C87.548 40.3641 87.3712 40.7182 87.0174 40.8362L84.6592 41.6034C84.6592 41.6624 84.5413 41.6624 84.4824 41.6624Z" fill="white"/>
<path d="M92.6771 36.7055C92.3234 36.7055 91.9696 36.5875 91.7338 36.2924L89.9652 34.5221C89.4346 33.991 89.4346 33.1648 89.9652 32.6337C90.4958 32.1026 91.3211 32.1026 91.8517 32.6337L93.6204 34.4041C94.151 34.9352 94.151 35.7613 93.6204 36.2924C93.3846 36.5875 93.0308 36.7055 92.6771 36.7055Z" fill="white"/>
<path d="M97.0398 36.7055C96.686 36.7055 96.3323 36.5875 96.0965 36.2924C95.5659 35.7613 95.5659 34.9352 96.0965 34.4041L97.8651 32.6337C98.3957 32.1026 99.2211 32.1026 99.7517 32.6337C100.282 33.1648 100.282 33.991 99.7517 34.5221L97.983 36.2924C97.6883 36.5875 97.3345 36.7055 97.0398 36.7055Z" fill="white"/>
<path d="M90.9084 42.7837C90.5547 42.7837 90.201 42.6656 89.9652 42.3706C89.4346 41.8395 89.4346 41.0133 89.9652 40.4822L91.7338 38.7118C92.2644 38.1807 93.0898 38.1807 93.6204 38.7118C94.151 39.2429 94.151 40.0691 93.6204 40.6002L91.8517 42.3706C91.6159 42.6656 91.2622 42.7837 90.9084 42.7837Z" fill="white"/>
<path d="M98.8084 42.7837C98.4547 42.7837 98.1009 42.6656 97.8651 42.3706L96.0965 40.6002C95.5659 40.0691 95.5659 39.2429 96.0965 38.7118C96.6271 38.1807 97.4524 38.1807 97.983 38.7118L99.7517 40.4822C100.282 41.0133 100.282 41.8395 99.7517 42.3706C99.4569 42.6656 99.1032 42.7837 98.8084 42.7837Z" fill="white"/>
<path d="M70.569 62.7889L74.519 58.8351C74.7548 58.599 74.7548 58.127 74.519 57.8909C74.2832 57.6549 73.8115 57.6549 73.5757 57.8909L69.6257 61.8447L65.6758 57.8909C65.4399 57.6549 64.9683 57.6549 64.7325 57.8909C64.4967 58.127 64.4967 58.599 64.7325 58.8351L68.6824 62.7889L64.7325 66.7427C64.4967 66.9788 64.4967 67.4509 64.7325 67.6869C64.8504 67.8049 65.0272 67.864 65.2041 67.864C65.381 67.864 65.5578 67.8049 65.6758 67.6869L69.6257 63.7331L73.5757 67.6869C73.6936 67.8049 73.8705 67.864 74.0473 67.864C74.2242 67.864 74.4011 67.8049 74.519 67.6869C74.7548 67.4509 74.7548 66.9788 74.519 66.7427L70.569 62.7889Z" fill="white"/>
<path d="M84.4824 48.5672C84.3055 48.5672 84.1286 48.5082 84.0107 48.3901C83.7749 48.1541 83.7749 47.682 84.0107 47.4459L85.7794 45.6756C86.0152 45.4395 86.4868 45.4395 86.7226 45.6756C86.9585 45.9116 86.9585 46.3837 86.7226 46.6198L84.954 48.3901C84.8361 48.5082 84.6592 48.5672 84.4824 48.5672Z" fill="white"/>
<path d="M86.251 29.5652C86.0741 29.5652 85.8973 29.5062 85.7794 29.3882L84.0107 27.6178C83.7749 27.3818 83.7749 26.9097 84.0107 26.6736C84.2465 26.4376 84.7182 26.4376 84.954 26.6736L86.7226 28.444C86.9585 28.68 86.9585 29.1521 86.7226 29.3882C86.6047 29.5062 86.4279 29.5652 86.251 29.5652Z" fill="white"/>
<path d="M103.466 29.5652C103.289 29.5652 103.112 29.5062 102.994 29.3882C102.758 29.1521 102.758 28.68 102.994 28.444L104.763 26.6736C104.999 26.4376 105.47 26.4376 105.706 26.6736C105.942 26.9097 105.942 27.3818 105.706 27.6178L103.937 29.3882C103.82 29.5062 103.643 29.5652 103.466 29.5652Z" fill="white"/>
<path d="M40.8557 57.8911C40.502 57.8911 40.2072 58.1862 40.2072 58.5402V59.4254C39.3229 58.4222 38.0849 57.8911 36.7879 57.8911C34.1938 57.8911 32.0715 60.1336 32.0715 62.9071C32.0715 65.6807 34.1938 67.9232 36.7879 67.9232C38.0849 67.9232 39.3229 67.3331 40.2072 66.3889V67.274C40.2072 67.6281 40.502 67.9232 40.8557 67.9232C41.2095 67.9232 41.5042 67.6281 41.5042 67.274V58.5402C41.5042 58.1862 41.2095 57.8911 40.8557 57.8911ZM36.7879 66.5659C34.9013 66.5659 33.3685 64.9136 33.3685 62.9071C33.3685 60.9007 34.9013 59.1894 36.7879 59.1894C38.6744 59.1894 40.2072 60.8417 40.2072 62.9071C40.2072 64.9136 38.6744 66.5659 36.7879 66.5659Z" fill="white"/>
<path d="M45.4542 54.4683C45.1005 54.4683 44.8057 54.7633 44.8057 55.1174V55.5895C44.8057 55.9436 45.1005 56.2976 45.4542 56.2976C45.8079 56.2976 46.1617 56.0026 46.1617 55.5895V55.1174C46.1617 54.7633 45.8079 54.4683 45.4542 54.4683Z" fill="white"/>
<path d="M45.4542 57.8911C45.1005 57.8911 44.8057 58.1862 44.8057 58.5402V67.215C44.8057 67.5691 45.1005 67.8642 45.4542 67.8642C45.8079 67.8642 46.1617 67.5691 46.1617 67.215V58.5402C46.1617 58.1862 45.8669 57.8911 45.4542 57.8911Z" fill="white"/>
<path d="M57.6579 57.8911C57.3042 57.8911 57.0094 58.1862 57.0094 58.5402V59.4254C56.1251 58.4222 54.887 57.8911 53.59 57.8911C50.996 57.8911 48.8736 60.1336 48.8736 62.9071C48.8736 65.6807 50.996 67.9232 53.59 67.9232C54.887 67.9232 56.1251 67.3331 57.0094 66.3889V67.274C57.0094 67.6281 57.3042 67.9232 57.6579 67.9232C58.0116 67.9232 58.3064 67.6281 58.3064 67.274V58.5402C58.3064 58.1862 58.0116 57.8911 57.6579 57.8911ZM53.59 66.5659C51.7034 66.5659 50.1706 64.9136 50.1706 62.9071C50.1706 60.9007 51.7034 59.1894 53.59 59.1894C55.4766 59.1894 57.0094 60.8417 57.0094 62.9071C56.9504 64.9136 55.4766 66.5659 53.59 66.5659Z" fill="white"/>
<path d="M28.8289 57.8911C28.4752 57.8911 28.1215 58.1862 28.1215 58.5402V59.4254C27.2372 58.4812 25.9991 57.8911 24.7021 57.8911C22.1081 57.8911 19.9857 60.1336 19.9857 62.8481C19.9857 65.5627 22.1081 67.8052 24.7021 67.8052C25.9991 67.8052 27.2372 67.2741 28.1215 66.2708V66.92C28.1215 68.8084 26.6476 70.2837 24.7021 70.2837C24.2305 70.2837 23.7588 70.1657 23.3461 69.9886C22.8745 69.8116 22.5208 69.5165 22.226 69.2215C22.1081 69.1034 21.9312 68.9854 21.7544 68.9854C21.5775 68.9854 21.4006 69.0444 21.2827 69.1624C20.9879 69.3985 21.0469 69.8116 21.2238 70.1066C21.6364 70.5197 22.1081 70.8738 22.5797 71.1098L22.6387 71.1689C22.6976 71.1689 22.6976 71.2279 22.7566 71.2279L22.8745 71.2869C22.9335 71.2869 22.9335 71.3459 22.9924 71.3459C23.523 71.5819 24.1126 71.641 24.7021 71.641C25.0558 71.641 25.3506 71.5819 25.7043 71.5229H25.7633C26.0581 71.4639 26.3528 71.3459 26.6476 71.2279C26.8834 71.1098 27.1193 70.9918 27.3551 70.8148C27.414 70.7558 27.473 70.6968 27.5319 70.6968L27.6498 70.6377C27.7678 70.5787 27.8857 70.4607 28.0036 70.3427C28.1215 70.2247 28.2394 70.1657 28.3573 69.9886C28.4163 69.9296 28.4752 69.8706 28.4752 69.8706C29.1827 68.9854 29.5954 67.9822 29.5954 66.861V58.5402C29.4774 58.1862 29.1827 57.8911 28.8289 57.8911ZM24.7611 66.5069C22.8745 66.5069 21.4006 64.8546 21.4006 62.8481C21.4006 60.8417 22.9335 59.1894 24.7611 59.1894C26.6476 59.1894 28.1804 60.8417 28.1804 62.8481C28.1215 64.8546 26.6476 66.5069 24.7611 66.5069Z" fill="white"/>
</svg>
