<svg width="24" height="23" viewBox="0 0 24 23" fill="none" xmlns="http://www.w3.org/2000/svg">
<rect width="24" height="23" fill="#F5F5F5"/>
<g clip-path="url(#clip0_1_3)">
<rect width="1920" height="1040" transform="translate(-981 -299)" fill="#ECECEC"/>
<rect x="-981" y="-299" width="1920" height="1040" fill="#FAFAFA"/>
<g filter="url(#filter0_d_1_3)">
<rect x="-580" y="-24" width="910" height="110" rx="10" fill="white"/>
<rect x="-579.5" y="-23.5" width="909" height="109" rx="9.5" stroke="#465AFF"/>
</g>
<path d="M11.8857 15.6314C13.5662 14.3149 14.8362 13.0474 15.6958 11.8289C16.5553 10.6103 16.9851 9.47758 16.9851 8.43063C16.9851 7.50824 16.8106 6.72534 16.4616 6.08195C16.1126 5.43854 15.6829 4.91493 15.1726 4.51112C14.6624 4.10729 14.1103 3.81354 13.5166 3.62986C12.9228 3.44618 12.3799 3.35434 11.888 3.35434C11.3916 3.35434 10.8468 3.44582 10.2536 3.62878C9.6604 3.81173 9.10874 4.10547 8.5986 4.51002C8.08847 4.91456 7.65891 5.43875 7.30991 6.08257C6.9609 6.72641 6.78639 7.51001 6.78639 8.43336C6.78639 9.47849 7.21617 10.6103 8.07572 11.8289C8.93526 13.0474 10.2053 14.3149 11.8857 15.6314ZM11.8857 17.7044C9.58863 16.0325 7.88328 14.4356 6.7697 12.9138C5.65615 11.392 5.09937 9.90019 5.09937 8.43844C5.09937 7.33435 5.30473 6.36396 5.71547 5.52729C6.12618 4.69062 6.65697 3.98892 7.30783 3.42221C7.95867 2.85549 8.6869 2.42949 9.4925 2.14423C10.2981 1.85895 11.0956 1.71631 11.8851 1.71631C12.6746 1.71631 13.4723 1.85895 14.2783 2.14423C15.0843 2.42949 15.8127 2.85549 16.4635 3.42221C17.1144 3.98892 17.6452 4.69088 18.056 5.52808C18.4667 6.36528 18.6721 7.33707 18.6721 8.44345C18.6721 9.90823 18.1153 11.3999 17.0018 12.9186C15.8882 14.4372 14.1829 16.0325 11.8857 17.7044ZM11.8879 10.0627C12.3949 10.0627 12.8269 9.88921 13.1841 9.54227C13.5412 9.19532 13.7197 8.77659 13.7197 8.28607C13.7197 7.79398 13.5404 7.3746 13.1819 7.02794C12.8233 6.6813 12.3905 6.50798 11.8835 6.50798C11.3766 6.50798 10.9445 6.68203 10.5874 7.03015C10.2303 7.37826 10.0517 7.7984 10.0517 8.29057C10.0517 8.78274 10.231 9.20113 10.5896 9.54575C10.9482 9.89036 11.381 10.0627 11.8879 10.0627ZM5.09937 21.2783V19.646H18.6721V21.2783H5.09937Z" fill="url(#paint0_linear_1_3)"/>
</g>
<defs>
<filter id="filter0_d_1_3" x="-595" y="-37" width="940" height="140" filterUnits="userSpaceOnUse" color-interpolation-filters="sRGB">
<feFlood flood-opacity="0" result="BackgroundImageFix"/>
<feColorMatrix in="SourceAlpha" type="matrix" values="0 0 0 0 0 0 0 0 0 0 0 0 0 0 0 0 0 0 127 0" result="hardAlpha"/>
<feOffset dy="2"/>
<feGaussianBlur stdDeviation="7.5"/>
<feComposite in2="hardAlpha" operator="out"/>
<feColorMatrix type="matrix" values="0 0 0 0 0 0 0 0 0 0 0 0 0 0 0 0 0 0 0.1 0"/>
<feBlend mode="normal" in2="BackgroundImageFix" result="effect1_dropShadow_1_3"/>
<feBlend mode="normal" in="SourceGraphic" in2="effect1_dropShadow_1_3" result="shape"/>
</filter>
<linearGradient id="paint0_linear_1_3" x1="19.502" y1="19.9742" x2="2.36605" y2="18.8526" gradientUnits="userSpaceOnUse">
<stop stop-color="#46DAFF"/>
<stop offset="0.5" stop-color="#000094"/>
<stop offset="1" stop-color="#B900FF"/>
</linearGradient>
<clipPath id="clip0_1_3">
<rect width="1920" height="1040" fill="white" transform="translate(-981 -299)"/>
</clipPath>
</defs>
</svg>
