<svg width="23" height="21" viewBox="0 0 23 21" fill="none" xmlns="http://www.w3.org/2000/svg">
<rect width="23" height="21" fill="#F5F5F5"/>
<g clip-path="url(#clip0_1_3)">
<rect width="1920" height="1040" transform="translate(-692 -334)" fill="#ECECEC"/>
<rect x="-692" y="-334" width="1920" height="1040" fill="#FAFAFA"/>
<g filter="url(#filter0_d_1_3)">
<rect x="-291" y="-59" width="910" height="110" rx="10" fill="white"/>
<rect x="-290.5" y="-58.5" width="909" height="109" rx="9.5" stroke="#465AFF"/>
</g>
<path d="M11.2694 12C13.4923 12 15.2942 10.3211 15.2942 8.25C15.2942 6.17893 13.4923 4.5 11.2694 4.5C9.04659 4.5 7.24463 6.17893 7.24463 8.25C7.24463 10.3211 9.04659 12 11.2694 12Z" stroke="url(#paint0_linear_1_3)" stroke-linecap="round" stroke-linejoin="round"/>
<path d="M4.39508 17.8499C5.11349 16.7512 6.12318 15.8431 7.32708 15.213C8.53098 14.5829 9.8886 14.252 11.2694 14.252C12.6503 14.252 14.0079 14.5829 15.2118 15.213C16.4157 15.8431 17.4254 16.7512 18.1438 17.8499" stroke="url(#paint1_linear_1_3)" stroke-linecap="round" stroke-linejoin="round"/>
<path d="M11.2694 20.25C17.0488 20.25 21.7339 15.8848 21.7339 10.5C21.7339 5.11522 17.0488 0.75 11.2694 0.75C5.49007 0.75 0.804962 5.11522 0.804962 10.5C0.804962 15.8848 5.49007 20.25 11.2694 20.25Z" stroke="url(#paint2_linear_1_3)" stroke-linecap="round" stroke-linejoin="round"/>
</g>
<defs>
<filter id="filter0_d_1_3" x="-306" y="-72" width="940" height="140" filterUnits="userSpaceOnUse" color-interpolation-filters="sRGB">
<feFlood flood-opacity="0" result="BackgroundImageFix"/>
<feColorMatrix in="SourceAlpha" type="matrix" values="0 0 0 0 0 0 0 0 0 0 0 0 0 0 0 0 0 0 127 0" result="hardAlpha"/>
<feOffset dy="2"/>
<feGaussianBlur stdDeviation="7.5"/>
<feComposite in2="hardAlpha" operator="out"/>
<feColorMatrix type="matrix" values="0 0 0 0 0 0 0 0 0 0 0 0 0 0 0 0 0 0 0.1 0"/>
<feBlend mode="normal" in2="BackgroundImageFix" result="effect1_dropShadow_1_3"/>
<feBlend mode="normal" in="SourceGraphic" in2="effect1_dropShadow_1_3" result="shape"/>
</filter>
<linearGradient id="paint0_linear_1_3" x1="15.7864" y1="11.5" x2="5.6836" y2="10.4771" gradientUnits="userSpaceOnUse">
<stop stop-color="#46DAFF"/>
<stop offset="0.5" stop-color="#000094"/>
<stop offset="1" stop-color="#B900FF"/>
</linearGradient>
<linearGradient id="paint1_linear_1_3" x1="18.9844" y1="17.61" x2="3.55661" y2="12.0488" gradientUnits="userSpaceOnUse">
<stop stop-color="#46DAFF"/>
<stop offset="0.5" stop-color="#000094"/>
<stop offset="1" stop-color="#B900FF"/>
</linearGradient>
<linearGradient id="paint2_linear_1_3" x1="23.0135" y1="18.95" x2="-3.25371" y2="16.2906" gradientUnits="userSpaceOnUse">
<stop stop-color="#46DAFF"/>
<stop offset="0.5" stop-color="#000094"/>
<stop offset="1" stop-color="#B900FF"/>
</linearGradient>
<clipPath id="clip0_1_3">
<rect width="1920" height="1040" fill="white" transform="translate(-692 -334)"/>
</clipPath>
</defs>
</svg>
